<svg width="196" height="196" viewBox="0 0 196 196" fill="none" xmlns="http://www.w3.org/2000/svg">
<path d="M97.8262 111.068C95.2788 111.068 93.206 113.141 93.206 115.689C93.206 118.235 95.2788 120.309 97.8262 120.309C100.374 120.309 102.446 118.235 102.446 115.689C102.446 113.141 100.374 111.068 97.8262 111.068ZM97.8262 123.559C93.4848 123.559 89.9563 120.029 89.9563 115.689C89.9563 111.351 93.4848 107.818 97.8262 107.818C102.163 107.818 105.696 111.351 105.696 115.689C105.696 120.029 102.163 123.559 97.8262 123.559Z" fill="white"/>
<path d="M88.3824 130.891C86.715 130.891 85.3605 132.245 85.3605 133.908C85.3605 135.57 86.715 136.925 88.3824 136.925C90.045 136.925 91.3986 135.57 91.3986 133.908C91.3986 132.245 90.045 130.891 88.3824 130.891ZM88.3824 140.175C84.9248 140.175 82.1118 137.364 82.1118 133.908C82.1118 130.451 84.9248 127.641 88.3824 127.641C91.839 127.641 94.6482 130.451 94.6482 133.908C94.6482 137.364 91.839 140.175 88.3824 140.175Z" fill="white"/>
<mask id="mask0_421_114" style="mask-type:luminance" maskUnits="userSpaceOnUse" x="83" y="148" width="11" height="11">
<path d="M83.2395 148.573H93.4025V158.63H83.2395V148.573Z" fill="white"/>
</mask>
<g mask="url(#mask0_421_114)">
<path d="M88.3824 152.017C87.4636 152.017 86.7235 152.762 86.7235 153.676C86.7235 154.59 87.4636 155.335 88.3824 155.335C89.2955 155.335 90.0403 154.59 90.0403 153.676C90.0403 152.762 89.2955 152.017 88.3824 152.017ZM88.3824 158.585C85.6743 158.585 83.4739 156.384 83.4739 153.676C83.4739 150.972 85.6743 148.768 88.3824 148.768C91.0857 148.768 93.2899 150.972 93.2899 153.676C93.2899 156.384 91.0857 158.585 88.3824 158.585Z" fill="white"/>
</g>
<path d="M88.3824 152.017C87.4854 152.017 86.7576 151.289 86.7576 150.392V138.55C86.7576 137.653 87.4854 136.925 88.3824 136.925C89.2794 136.925 90.0063 137.653 90.0063 138.55V150.392C90.0063 151.289 89.2794 152.017 88.3824 152.017Z" fill="white"/>
<path d="M107.274 130.891C105.611 130.891 104.257 132.245 104.257 133.908C104.257 135.57 105.611 136.925 107.274 136.925C108.941 136.925 110.295 135.57 110.295 133.908C110.295 132.245 108.941 130.891 107.274 130.891ZM107.274 140.175C103.821 140.175 101.008 137.364 101.008 133.908C101.008 130.451 103.821 127.641 107.274 127.641C110.731 127.641 113.545 130.451 113.545 133.908C113.545 137.364 110.731 140.175 107.274 140.175Z" fill="white"/>
<mask id="mask1_421_114" style="mask-type:luminance" maskUnits="userSpaceOnUse" x="102" y="148" width="11" height="11">
<path d="M102.355 148.573H112.276V158.63H102.355V148.573Z" fill="white"/>
</mask>
<g mask="url(#mask1_421_114)">
<path d="M107.274 152.017C106.36 152.017 105.616 152.762 105.616 153.676C105.616 154.59 106.36 155.335 107.274 155.335C108.192 155.335 108.937 154.59 108.937 153.676C108.937 152.762 108.192 152.017 107.274 152.017ZM107.274 158.585C104.57 158.585 102.366 156.384 102.366 153.676C102.366 150.972 104.57 148.768 107.274 148.768C109.982 148.768 112.187 150.972 112.187 153.676C112.187 156.384 109.982 158.585 107.274 158.585Z" fill="white"/>
</g>
<path d="M107.274 152.017C106.377 152.017 105.65 151.289 105.65 150.392V138.55C105.65 137.653 106.377 136.925 107.274 136.925C108.171 136.925 108.899 137.653 108.899 138.55V150.392C108.899 151.289 108.171 152.017 107.274 152.017Z" fill="white"/>
<path d="M145.016 152.335C144.182 152.335 143.475 151.7 143.4 150.854C143.319 149.961 143.979 149.169 144.872 149.094C150.097 148.624 152.289 147.156 152.454 146.698C152.196 146.09 148.671 144.287 141.898 144.287C135.123 144.287 131.603 146.09 131.341 146.809C131.506 147.156 133.693 148.624 138.915 149.094C139.807 149.169 140.468 149.961 140.387 150.854C140.302 151.747 139.516 152.398 138.622 152.33C136.155 152.106 128.099 151.052 128.099 146.753C128.099 142.827 135.255 141.038 141.898 141.038C148.544 141.038 155.7 142.827 155.7 146.753C155.7 151.052 147.635 152.106 145.164 152.33C145.113 152.335 145.067 152.335 145.016 152.335Z" fill="white"/>
<path d="M141.893 148.924C141.059 148.924 140.379 149.606 140.379 150.439C140.379 151.272 141.059 151.954 141.893 151.954C142.731 151.954 143.408 151.272 143.408 150.439C143.408 149.606 142.731 148.924 141.893 148.924ZM141.893 155.204C139.265 155.204 137.129 153.066 137.129 150.439C137.129 147.812 139.265 145.675 141.893 145.675C144.521 145.675 146.658 147.812 146.658 150.439C146.658 153.066 144.521 155.204 141.893 155.204Z" fill="white"/>
<path d="M98.0879 40.805C69.4308 40.805 50.467 48.6663 49.3374 55.952C46.7646 72.4962 81.6544 94.6048 96.637 101.036C97.4026 101.366 98.2448 101.366 99.0104 101.036C113.993 94.6048 148.883 72.4962 146.315 55.952C145.18 48.6663 126.425 40.805 98.0879 40.805ZM97.8261 104.53C96.9839 104.53 96.1417 104.357 95.3553 104.023C81.7139 98.1673 43.1132 74.8365 46.1256 55.453C47.7126 45.2475 70.0481 37.5553 98.0879 37.5553C125.827 37.5553 147.94 45.2475 149.527 55.453C152.539 74.8365 113.934 98.1673 100.293 104.023C99.5095 104.357 98.6683 104.53 97.8261 104.53Z" fill="white"/>
<path d="M122.781 102.136C121.376 102.136 120.234 103.274 120.234 104.679C120.234 106.083 121.376 107.226 122.781 107.226C124.186 107.226 125.328 106.083 125.328 104.679C125.328 103.274 124.186 102.136 122.781 102.136ZM122.781 110.476C119.587 110.476 116.985 107.874 116.985 104.679C116.985 101.484 119.587 98.8866 122.781 98.8866C125.98 98.8866 128.578 101.484 128.578 104.679C128.578 107.874 125.98 110.476 122.781 110.476Z" fill="white"/>
<mask id="mask2_421_114" style="mask-type:luminance" maskUnits="userSpaceOnUse" x="155" y="98" width="12" height="13">
<path d="M155.106 98.726H166.798V110.583H155.106V98.726Z" fill="white"/>
</mask>
<g mask="url(#mask2_421_114)">
<path d="M161.005 102.136C159.601 102.136 158.458 103.274 158.458 104.679C158.458 106.083 159.601 107.226 161.005 107.226C162.41 107.226 163.553 106.083 163.553 104.679C163.553 103.274 162.41 102.136 161.005 102.136ZM161.005 110.476C157.807 110.476 155.208 107.874 155.208 104.679C155.208 101.484 157.807 98.8866 161.005 98.8866C164.2 98.8866 166.802 101.484 166.802 104.679C166.802 107.874 164.2 110.476 161.005 110.476Z" fill="white"/>
</g>
<path d="M141.91 122.45C135.525 122.45 129.166 118.096 123.001 109.506C122.481 108.779 122.646 107.763 123.373 107.243C124.106 106.719 125.121 106.888 125.642 107.616C131.159 115.303 136.634 119.2 141.91 119.2C141.915 119.2 141.918 119.2 141.918 119.2C147.191 119.196 152.653 115.299 158.145 107.616C158.666 106.888 159.681 106.719 160.409 107.239C161.14 107.763 161.31 108.779 160.785 109.506C154.651 118.088 148.303 122.445 141.923 122.45C141.918 122.45 141.915 122.45 141.91 122.45Z" fill="white"/>
<path d="M142.007 131.936C141.918 131.936 141.838 131.94 141.745 131.936C137.73 131.936 125.1 130.171 122.705 108.741C122.608 107.852 123.25 107.044 124.144 106.947C125.011 106.841 125.836 107.488 125.938 108.381C128.032 127.147 138.453 128.686 141.775 128.686C141.847 128.686 141.915 128.686 141.982 128.686C145.334 128.686 155.755 127.147 157.849 108.381C157.95 107.488 158.767 106.845 159.647 106.947C160.535 107.044 161.179 107.852 161.082 108.741C158.687 130.171 146.057 131.936 142.007 131.936Z" fill="white"/>
<path d="M38.3908 108.076C38.1498 108.076 37.9087 108.026 37.68 107.912C36.8766 107.522 36.5372 106.549 36.9267 105.74C40.2784 98.8308 47.4034 94.3628 55.0824 94.3628C62.8889 94.3628 69.8495 98.7212 73.2475 105.74C73.636 106.549 73.3024 107.522 72.4942 107.912C71.6898 108.305 70.7125 107.966 70.323 107.158C67.4713 101.269 61.6327 97.6124 55.0824 97.6124C48.5415 97.6124 42.7067 101.269 39.8502 107.158C39.5714 107.738 38.992 108.076 38.3908 108.076Z" fill="white"/>
<mask id="mask3_421_114" style="mask-type:luminance" maskUnits="userSpaceOnUse" x="29" y="104" width="53" height="23">
<path d="M29.2346 104.533H81.0618V126.795H29.2346V104.533Z" fill="white"/>
</mask>
<g mask="url(#mask3_421_114)">
<path d="M77.6902 122.026C77.6902 122.818 77.0635 123.47 76.2941 123.478C72.4225 123.508 65.3901 122.662 61.4211 116.374C61.337 116.243 61.2642 116.099 61.1971 115.959H65.4657C66.3627 115.959 67.0905 115.231 67.0905 114.334C67.0905 113.433 66.3627 112.709 65.4657 112.709H61.1631C61.493 111.956 62.0601 111.326 62.7964 110.937C65.7625 109.367 70.5226 107.573 76.4037 107.945C77.1268 107.992 77.6902 108.626 77.6902 109.388V122.026ZM57.575 115.612C57.575 116.4 56.9323 117.042 56.1449 117.042H54.0295C53.2422 117.042 52.5994 116.4 52.5994 115.612V113.497C52.5994 112.709 53.2422 112.067 54.0295 112.067H56.1449C56.9323 112.067 57.575 112.709 57.575 113.497V115.612ZM44.7078 115.959H48.9773C48.9093 116.099 48.8375 116.243 48.7533 116.374C44.7796 122.662 37.7179 123.528 33.8766 123.478C33.111 123.47 32.4843 122.818 32.4843 122.026V109.388C32.4843 108.626 33.0467 107.992 33.766 107.945C34.2991 107.911 34.8246 107.898 35.336 107.898C40.494 107.898 44.6832 109.506 47.378 110.937C48.1144 111.326 48.6768 111.956 49.0114 112.709H44.7078C43.8108 112.709 43.083 113.433 43.083 114.334C43.083 115.231 43.8108 115.959 44.7078 115.959ZM76.6107 104.704C69.9848 104.286 64.6112 106.299 61.2774 108.064C60.4145 108.52 59.6734 109.147 59.0902 109.892C58.2821 109.232 57.2659 108.817 56.1449 108.817H54.0295C52.9085 108.817 51.8924 109.232 51.0842 109.892C50.4963 109.147 49.76 108.52 48.897 108.064C45.5632 106.299 40.1935 104.286 33.5637 104.704C31.1345 104.857 29.2346 106.912 29.2346 109.388V122.026C29.2346 124.591 31.2999 126.698 33.8425 126.728C33.9437 126.728 34.0496 126.732 34.1554 126.732C38.5431 126.732 46.0916 125.645 50.8602 119.031C51.6939 119.81 52.8026 120.292 54.0295 120.292H56.1449C57.3718 120.292 58.4806 119.81 59.3142 119.031C64.0828 125.645 71.6313 126.732 76.019 126.732C76.124 126.732 76.2298 126.728 76.3319 126.728C78.8745 126.698 80.9398 124.591 80.9398 122.026V109.388C80.9398 106.912 79.0399 104.857 76.6107 104.704Z" fill="white"/>
</g>
<path d="M45.0083 144.282C43.5829 144.282 42.4193 145.442 42.4193 146.872C42.4193 148.302 43.5829 149.461 45.0083 149.461C46.4384 149.461 47.5982 148.302 47.5982 146.872C47.5982 145.442 46.4384 144.282 45.0083 144.282ZM45.0083 152.711C41.7889 152.711 39.1697 150.092 39.1697 146.872C39.1697 143.652 41.7889 141.033 45.0083 141.033C48.2286 141.033 50.8478 143.652 50.8478 146.872C50.8478 150.092 48.2286 152.711 45.0083 152.711Z" fill="white"/>
<path d="M65.166 144.282C63.7358 144.282 62.5761 145.442 62.5761 146.872C62.5761 148.302 63.7358 149.461 65.166 149.461C66.5913 149.461 67.7549 148.302 67.7549 146.872C67.7549 145.442 66.5913 144.282 65.166 144.282ZM65.166 152.711C61.9456 152.711 59.3264 150.092 59.3264 146.872C59.3264 143.652 61.9456 141.033 65.166 141.033C68.3854 141.033 71.0046 143.652 71.0046 146.872C71.0046 150.092 68.3854 152.711 65.166 152.711Z" fill="white"/>
<path d="M97.8261 104.497C96.9205 104.497 96.1842 105.233 96.1842 106.138C96.1842 107.044 96.9205 107.78 97.8261 107.78C98.7316 107.78 99.4679 107.044 99.4679 106.138C99.4679 105.233 98.7316 104.497 97.8261 104.497ZM97.8261 111.03C95.1265 111.03 92.9346 108.838 92.9346 106.138C92.9346 103.444 95.1265 101.248 97.8261 101.248C100.521 101.248 102.718 103.444 102.718 106.138C102.718 108.838 100.521 111.03 97.8261 111.03Z" fill="white"/>
</svg>
