<svg width="178" height="178" viewBox="0 0 178 178" fill="none" xmlns="http://www.w3.org/2000/svg">
<mask id="mask0_421_150" style="mask-type:luminance" maskUnits="userSpaceOnUse" x="48" y="116" width="25" height="32">
<path d="M48.6033 116.689H72.9177V147.524H48.6033V116.689Z" fill="white"/>
</mask>
<g mask="url(#mask0_421_150)">
<path d="M64.508 147.524C63.8504 147.524 63.1894 147.42 62.5465 147.211C60.9387 146.689 59.6313 145.572 58.8639 144.065L48.8566 124.415C48.4282 123.574 48.7621 122.546 49.6025 122.117C50.4429 121.689 51.4713 122.023 51.8996 122.864L61.907 142.513C62.2606 143.207 62.8624 143.721 63.6015 143.961C64.3414 144.202 65.1295 144.14 65.8231 143.786L67.8489 142.754C68.5416 142.401 69.0558 141.799 69.2962 141.058C69.5365 140.318 69.4739 139.529 69.1211 138.837L59.1137 119.186C58.6854 118.346 59.0193 117.316 59.8597 116.889C60.7001 116.461 61.7284 116.794 62.1568 117.636L72.1641 137.286C72.9315 138.792 73.0663 140.506 72.5444 142.114C72.0225 143.723 70.9057 145.03 69.4 145.798L67.3733 146.831C66.4703 147.291 65.4926 147.524 64.508 147.524Z" fill="white"/>
</g>
<path d="M37.2035 106.936L45.8966 124.007L63.5653 115L54.8713 97.93L37.2035 106.936ZM45.1524 128.013C44.5301 128.013 43.9309 127.672 43.6296 127.08L33.3845 106.965C33.1793 106.561 33.1424 106.093 33.2823 105.662C33.4222 105.231 33.7278 104.873 34.1313 104.668L54.843 94.1101C55.6825 93.6818 56.7109 94.0157 57.1393 94.8561L67.3835 114.97C67.5895 115.375 67.6265 115.843 67.4865 116.275C67.3466 116.705 67.041 117.063 66.6376 117.269L45.9258 127.826C45.6778 127.953 45.4125 128.013 45.1524 128.013Z" fill="white"/>
<path d="M34.8911 128.455C34.2696 128.455 33.6696 128.114 33.3683 127.522L26.9963 115.011C26.7911 114.607 26.7542 114.138 26.8941 113.708C27.034 113.276 27.3388 112.918 27.7422 112.713L36.0671 108.47C36.9083 108.041 37.9359 108.375 38.3642 109.216C38.7925 110.056 38.4586 111.085 37.6182 111.514L30.8145 114.982L35.6362 124.448L42.4391 120.98C43.2795 120.552 44.3078 120.886 44.7362 121.726C45.1645 122.567 44.8297 123.596 43.9902 124.025L35.6654 128.268C35.4173 128.395 35.152 128.455 34.8911 128.455Z" fill="white"/>
<path d="M65.8598 117.455C65.04 117.455 64.3164 116.862 64.1773 116.026C64.0219 115.095 64.6512 114.215 65.5808 114.06L91.6353 109.72L75.6397 78.3145L56.8164 96.851C56.1443 97.5128 55.0627 97.5043 54.4017 96.8313C53.7399 96.1591 53.7485 95.0775 54.4206 94.4157L74.9049 74.2431C75.2929 73.8611 75.8397 73.6877 76.377 73.7744C76.9144 73.8619 77.378 74.2001 77.6243 74.6851L95.7368 110.247C95.984 110.732 95.9849 111.306 95.7402 111.793C95.4947 112.278 95.0329 112.618 94.4955 112.708L66.1422 117.431C66.0469 117.446 65.9525 117.455 65.8598 117.455Z" fill="white"/>
<path d="M88.564 101.638C87.7133 101.638 86.9768 101.003 86.8712 100.137C86.757 99.2005 87.4231 98.3481 88.3588 98.2339C88.9571 98.1609 89.5357 97.9841 90.0765 97.7077C91.3134 97.0776 92.2259 96.0012 92.6457 94.6775C93.0655 93.3538 92.9401 91.9486 92.292 90.7185C91.0345 88.3313 88.0223 87.3132 85.5784 88.4497C84.9655 88.7347 84.4247 89.1262 83.9697 89.6155C83.3268 90.3056 82.2461 90.3443 81.5559 89.7013C80.8657 89.0584 80.8271 87.9776 81.47 87.2866C82.2272 86.4737 83.1251 85.8221 84.1397 85.3509C86.1286 84.4264 88.3794 84.3071 90.4765 85.0161C92.5727 85.7243 94.2904 87.1836 95.3136 89.1253C96.3909 91.17 96.5995 93.5092 95.9016 95.711C95.2029 97.9129 93.6852 99.7035 91.6276 100.752C90.7297 101.21 89.7692 101.504 88.7725 101.625C88.703 101.634 88.6326 101.638 88.564 101.638Z" fill="white"/>
<path d="M101.702 87.7141C101.08 87.7141 100.481 87.3733 100.179 86.781C99.7515 85.9398 100.085 84.9114 100.926 84.4831L106.262 81.7628C107.102 81.3344 108.13 81.6692 108.558 82.5096C108.986 83.35 108.652 84.3792 107.812 84.8075L102.476 87.527C102.228 87.654 101.963 87.7141 101.702 87.7141Z" fill="white"/>
<path d="M91.1167 78.863C90.9416 78.863 90.7639 78.8364 90.5888 78.7797C89.6918 78.4879 89.2008 77.5239 89.4918 76.6268L91.3425 70.9287C91.6335 70.0317 92.5975 69.5407 93.4945 69.8325C94.3916 70.1235 94.8826 71.0875 94.5907 71.9846L92.7409 77.6827C92.5057 78.4046 91.837 78.863 91.1167 78.863Z" fill="white"/>
<path d="M108.626 103.311C108.451 103.311 108.273 103.284 108.097 103.227L102.402 101.376C101.505 101.084 101.014 100.121 101.306 99.2228C101.597 98.3258 102.56 97.8339 103.457 98.1258L109.153 99.9774C110.05 100.269 110.541 101.232 110.249 102.13C110.015 102.852 109.345 103.311 108.626 103.311Z" fill="white"/>
<path d="M110.387 73.1924H146.193V50.2943H110.387V73.1924ZM147.9 76.6089H108.68C107.737 76.6089 106.973 75.844 106.973 74.9006V48.586C106.973 47.6418 107.737 46.877 108.68 46.877H147.9C148.843 46.877 149.608 47.6418 149.608 48.586V74.9006C149.608 75.844 148.843 76.6089 147.9 76.6089Z" fill="white"/>
<path d="M128.297 68.3655H128.284C127.854 68.3655 127.441 68.2042 127.126 67.9132L107.523 49.8419C106.829 49.2024 106.785 48.1208 107.424 47.428C108.063 46.7336 109.144 46.6898 109.837 47.3285L128.29 64.3404L146.743 47.3285C147.436 46.6898 148.517 46.7336 149.156 47.428C149.795 48.1208 149.752 49.2024 149.057 49.8419L129.454 67.9132C129.139 68.2042 128.726 68.3655 128.297 68.3655Z" fill="white"/>
<path d="M147.899 76.6097C147.547 76.6097 147.192 76.5015 146.889 76.2766L131.012 64.598C130.253 64.0383 130.089 62.9687 130.648 62.209C131.207 61.4485 132.276 61.2854 133.036 61.845L148.912 73.5246C149.671 74.0834 149.835 75.153 149.276 75.9127C148.941 76.3685 148.422 76.6097 147.899 76.6097Z" fill="white"/>
<path d="M108.682 76.6097C108.157 76.6097 107.639 76.3685 107.304 75.9127C106.746 75.153 106.908 74.0834 107.669 73.5246L123.544 61.845C124.304 61.2854 125.373 61.4485 125.932 62.209C126.49 62.9687 126.327 64.0383 125.567 64.598L109.692 76.2766C109.387 76.5007 109.033 76.6097 108.682 76.6097Z" fill="white"/>
<mask id="mask1_421_150" style="mask-type:luminance" maskUnits="userSpaceOnUse" x="50" y="30" width="44" height="41">
<path d="M50.9827 30.5062H93.8345V70.321H50.9827V30.5062Z" fill="white"/>
</mask>
<g mask="url(#mask1_421_150)">
<path d="M57.0507 33.9235C55.667 33.9235 54.5407 35.0489 54.5407 36.4335V54.5803C54.5407 55.964 55.667 57.0911 57.0507 57.0911H60.5839C61.1943 57.0911 61.7582 57.4165 62.063 57.9453L66.1241 64.9825L70.1853 57.9453C70.4909 57.4165 71.054 57.0911 71.6643 57.0911H87.8368C89.2197 57.0911 90.3459 55.964 90.3459 54.5803V36.4335C90.3459 35.0489 89.2197 33.9235 87.8368 33.9235H57.0507ZM66.1241 70.1081C65.5147 70.1081 64.9507 69.7819 64.6451 69.2531L59.5985 60.5076H57.0507C53.7836 60.5076 51.126 57.8483 51.126 54.5803V36.4335C51.126 33.1647 53.7836 30.5062 57.0507 30.5062H87.8368C91.103 30.5062 93.7615 33.1647 93.7615 36.4335V54.5803C93.7615 57.8483 91.103 60.5076 87.8368 60.5076H72.6506L67.6032 69.2531C67.2984 69.7819 66.7345 70.1081 66.1241 70.1081Z" fill="white"/>
</g>
<path d="M62.191 44.4665C61.6167 44.4665 61.1506 44.9335 61.1506 45.5069C61.1506 46.0812 61.6167 46.5473 62.191 46.5473C62.7644 46.5473 63.2305 46.0812 63.2305 45.5069C63.2305 44.9335 62.7644 44.4665 62.191 44.4665ZM62.191 49.9646C59.7342 49.9646 57.7358 47.9654 57.7358 45.5069C57.7358 43.0493 59.7342 41.05 62.191 41.05C64.6469 41.05 66.6461 43.0493 66.6461 45.5069C66.6461 47.9654 64.6469 49.9646 62.191 49.9646Z" fill="white"/>
<path d="M72.4438 44.4665C71.8704 44.4665 71.4034 44.9335 71.4034 45.5069C71.4034 46.0812 71.8704 46.5473 72.4438 46.5473C73.0172 46.5473 73.4833 46.0812 73.4833 45.5069C73.4833 44.9335 73.0172 44.4665 72.4438 44.4665ZM72.4438 49.9646C69.987 49.9646 67.9878 47.9654 67.9878 45.5069C67.9878 43.0493 69.987 41.05 72.4438 41.05C74.9006 41.05 76.899 43.0493 76.899 45.5069C76.899 47.9654 74.9006 49.9646 72.4438 49.9646Z" fill="white"/>
<path d="M82.6966 44.4665C82.1232 44.4665 81.6562 44.9335 81.6562 45.5069C81.6562 46.0812 82.1232 46.5473 82.6966 46.5473C83.2692 46.5473 83.7361 46.0812 83.7361 45.5069C83.7361 44.9335 83.2692 44.4665 82.6966 44.4665ZM82.6966 49.9646C80.2398 49.9646 78.2415 47.9654 78.2415 45.5069C78.2415 43.0493 80.2398 41.05 82.6966 41.05C85.1525 41.05 87.1518 43.0493 87.1518 45.5069C87.1518 47.9654 85.1525 49.9646 82.6966 49.9646Z" fill="white"/>
<mask id="mask2_421_150" style="mask-type:luminance" maskUnits="userSpaceOnUse" x="139" y="117" width="13" height="10">
<path d="M139.104 117.568H151.29V126.578H139.104V117.568Z" fill="white"/>
</mask>
<g mask="url(#mask2_421_150)">
<path d="M146.796 126.556H140.917C139.975 126.556 139.209 125.791 139.209 124.848C139.209 123.904 139.975 123.139 140.917 123.139H146.796C147.356 123.139 147.811 122.683 147.811 122.123C147.811 121.563 147.356 121.106 146.796 121.106C145.852 121.106 145.088 120.341 145.088 119.398C145.088 118.454 145.852 117.69 146.796 117.69C149.239 117.69 151.227 119.679 151.227 122.123C151.227 124.567 149.239 126.556 146.796 126.556Z" fill="white"/>
</g>
<path d="M146.138 132.006H140.206C139.262 132.006 138.498 131.241 138.498 130.296C138.498 129.353 139.262 128.588 140.206 128.588H146.138C146.699 128.588 147.155 128.133 147.155 127.573C147.155 127.012 146.699 126.556 146.138 126.556C145.195 126.556 144.431 125.791 144.431 124.848C144.431 123.904 145.195 123.139 146.138 123.139C148.582 123.139 150.57 125.128 150.57 127.573C150.57 130.017 148.582 132.006 146.138 132.006Z" fill="white"/>
<path d="M132.994 137.462C131.77 137.462 130.476 137.377 129.062 137.203C127.533 137.015 126.042 136.801 124.596 136.261C124.015 136.043 123.425 135.746 122.79 135.35C122.713 135.302 122.638 135.254 122.562 135.206C122.213 134.984 121.911 134.793 121.632 134.703C121.567 134.691 121.385 134.697 121.252 134.7C121.171 134.701 121.088 134.703 121.007 134.704L119.769 134.715C119.764 134.715 119.759 134.715 119.755 134.715C118.819 134.715 118.055 133.958 118.048 133.02C118.04 132.076 118.798 131.306 119.741 131.297L120.979 131.288C121.041 131.287 121.103 131.285 121.165 131.284C121.547 131.274 122.072 131.261 122.644 131.44C123.354 131.663 123.905 132.011 124.39 132.32C124.459 132.363 124.529 132.407 124.597 132.45C125.042 132.727 125.422 132.922 125.793 133.06C126.89 133.471 128.111 133.643 129.478 133.812C130.984 133.997 132.325 134.072 133.576 134.038C133.601 134.037 133.625 134.037 133.651 134.037H144.821C145.381 134.037 145.836 133.582 145.836 133.022C145.836 132.46 145.381 132.005 144.821 132.005C143.877 132.005 143.112 131.241 143.112 130.296C143.112 129.353 143.877 128.588 144.821 128.588C147.265 128.588 149.252 130.577 149.252 133.022C149.252 135.466 147.265 137.454 144.821 137.454H133.635C133.423 137.46 133.21 137.462 132.994 137.462Z" fill="white"/>
<path d="M145.744 121.106H141.274C140.33 121.106 139.566 120.341 139.566 119.398C139.566 118.454 140.33 117.69 141.274 117.69H145.744C146.304 117.69 146.76 117.234 146.76 116.673C146.76 116.113 146.304 115.657 145.744 115.657H134.233C133.29 115.657 132.526 114.893 132.526 113.949C132.526 112.819 132.761 111.74 133.227 110.743C133.421 110.327 133.624 109.926 133.822 109.538C134.199 108.793 134.556 108.089 134.807 107.364C135.4 105.649 135.886 103.206 134.861 101.26C134.854 101.248 134.844 101.236 134.834 101.222C134.57 100.868 134.23 100.601 133.922 100.506C133.624 100.415 133.228 100.468 133.048 100.743C132.963 100.874 132.98 101.301 132.988 101.529C133.025 102.431 132.988 103.244 132.874 104.019C132.64 105.605 132.158 107.015 131.442 108.216C131.401 108.35 131.341 108.481 131.265 108.606C131.219 108.681 130.926 109.153 130.417 109.84C130.393 109.875 130.372 109.904 130.354 109.927C130.337 109.951 130.32 109.974 130.302 109.996C128.607 112.253 124.82 116.511 119.975 117.139C119.037 117.26 118.183 116.6 118.061 115.665C117.94 114.729 118.601 113.872 119.535 113.751C122.028 113.428 124.275 111.59 125.722 110.105C126.458 109.351 127.06 108.616 127.502 108.033C127.508 108.023 127.513 108.014 127.52 108.003C127.554 107.949 127.606 107.864 127.683 107.743C127.832 107.512 128.065 107.151 128.38 106.67C128.937 105.819 129.313 104.759 129.495 103.521C129.578 102.96 129.604 102.354 129.577 101.668C129.543 100.824 129.558 99.8426 130.186 98.8786C131.173 97.3626 133.121 96.6879 134.921 97.239C135.929 97.5472 136.871 98.2374 137.574 99.1825C137.643 99.276 137.704 99.3627 137.759 99.4477C137.782 99.4821 137.803 99.5181 137.823 99.5542C139.146 101.971 139.219 105.058 138.035 108.482C137.708 109.428 137.28 110.271 136.867 111.084C136.674 111.465 136.492 111.823 136.322 112.188C136.313 112.206 136.306 112.223 136.298 112.241H145.744C148.187 112.241 150.175 114.229 150.175 116.673C150.175 119.118 148.187 121.106 145.744 121.106Z" fill="white"/>
<path d="M112.007 133.809H118.048V114.786H112.007V133.809ZM119.755 137.225H110.3C109.356 137.225 108.592 136.461 108.592 135.517V113.077C108.592 112.134 109.356 111.369 110.3 111.369H119.755C120.699 111.369 121.463 112.134 121.463 113.077V135.517C121.463 136.461 120.699 137.225 119.755 137.225Z" fill="white"/>
</svg>
