<svg width="186" height="186" viewBox="0 0 186 186" fill="none" xmlns="http://www.w3.org/2000/svg">
<mask id="mask0_421_184" style="mask-type:luminance" maskUnits="userSpaceOnUse" x="35" y="63" width="126" height="81">
<path d="M35.5925 63.837H160.97V143.434H35.5925V63.837Z" fill="white"/>
</mask>
<g mask="url(#mask0_421_184)">
<path d="M39.6039 118.861C39.3339 118.085 39.7815 116.9 40.8238 115.509C42.0867 117.834 43.6439 119.747 45.4648 121.219C44.5194 121.124 43.6628 120.986 42.9111 120.804C41.0597 120.356 39.8855 119.667 39.6048 118.863C39.6048 118.862 39.6048 118.862 39.6039 118.861ZM41.6302 101.429C41.8293 101.227 42.0966 101.117 42.381 101.117C45.1204 101.117 47.3485 98.8905 47.3485 96.1538V82.3375C47.3485 80.844 48.5648 79.6286 50.0601 79.6286C50.8091 79.6286 51.506 79.9273 52.0218 80.4691C52.5403 81.0126 52.8058 81.7248 52.7681 82.4765C52.4883 88.1518 52.7789 96.5019 55.7515 104.049C57.463 108.396 59.8848 111.971 62.9481 114.678C64.6837 116.211 66.6311 117.468 68.774 118.447C63.2539 119.825 60.2804 120.323 55.1685 120.979L53.5359 120.678C49.1694 119.952 45.8523 117.195 43.678 112.485C41.423 107.599 41.327 102.717 41.3234 102.176C41.3225 101.895 41.4302 101.629 41.6302 101.429ZM71.2641 102.367L74.2681 99.8665C73.5038 98.9498 72.876 98.0483 72.3611 97.1656C73.294 96.8221 74.2331 96.4857 75.1731 96.1592C85.8653 92.443 96.2874 90.0866 104.521 89.5215C108.351 89.2596 111.579 89.4129 113.858 89.9646C115.711 90.414 116.885 91.1029 117.165 91.9075C117.444 92.7112 116.952 93.9813 115.778 95.4811C115.193 96.2301 114.442 97.0239 113.547 97.8482C113.728 96.2032 113.203 94.5536 112.1 93.3158C110.988 92.0653 109.391 91.3495 107.698 91.3495C104.778 91.3495 102.279 93.5382 101.885 96.4409C100.891 103.745 96.57 108 95.3644 109.061C91.1046 111.043 86.46 112.919 81.5956 114.61C79.6016 115.304 77.6166 115.949 75.653 116.544C67.9291 115.054 62.4673 110.391 59.4076 102.663C62.3247 101.242 65.43 99.8745 68.6664 98.5856C69.3409 99.8198 70.1931 101.085 71.2641 102.367ZM124.579 81.5822C126.196 81.5822 127.512 82.8963 127.512 84.5118C127.512 85.4536 127.062 86.2905 126.371 86.8269L125.294 87.3508C125.065 87.4082 124.826 87.4423 124.579 87.4423C124.459 87.4423 124.343 87.4324 124.227 87.4198L124.685 87.114C125.584 86.5166 125.826 85.3029 125.228 84.405C124.628 83.5081 123.415 83.265 122.516 83.8633L121.65 84.4418C121.688 82.8577 122.985 81.5822 124.579 81.5822ZM153.626 68.0789C154.586 67.6502 155.704 68.0484 156.174 68.9885L156.632 69.9025C156.867 70.3752 156.904 70.9098 156.733 71.4094C156.562 71.9082 156.206 72.3082 155.72 72.5423L131.418 84.3701C131.377 82.3447 130.451 80.5345 129.011 79.3074L153.626 68.0789ZM109.66 97.4365C109.247 100.938 108.561 101.66 108.532 101.689L108.571 101.727C106.951 102.828 105.177 103.927 103.266 105.011C104.378 102.818 105.328 100.138 105.759 96.9665C105.891 95.9915 106.725 95.2559 107.717 95.2559C108.283 95.2559 108.802 95.4892 109.179 95.9125C109.555 96.3341 109.725 96.8759 109.66 97.4365ZM89.3043 136.751C78.8777 140.375 67.9398 140.469 58.5053 137.017C51.5339 134.467 46.0147 130.203 42.4707 124.727C44.2153 125.098 46.2838 125.285 48.6796 125.285C49.8771 125.285 51.1571 125.238 52.5161 125.145C59.2569 124.683 67.3702 123.075 75.8854 120.55C76.0567 120.577 80.7174 119.051 82.881 118.3C88.0046 116.52 92.9013 114.532 97.3862 112.428C97.3862 112.428 97.3862 112.428 97.4867 112.382C102.601 109.976 107.179 107.419 110.942 104.839C114.31 102.533 116.846 100.348 118.553 98.2914C120.024 113.892 108.097 130.22 89.3043 136.751ZM57.1607 140.687C62.1892 142.526 67.5981 143.445 73.1325 143.445C78.9118 143.445 84.8284 142.442 90.5888 140.44C101.866 136.522 111.229 129.229 116.953 119.907C122.756 110.458 124.143 100.059 120.858 90.623C120.795 90.4418 120.719 90.2678 120.638 90.0973C121.753 90.8849 123.112 91.3495 124.579 91.3495C125.206 91.3495 125.812 91.2625 126.39 91.1038L157.424 76.0594C158.852 75.3732 159.92 74.1713 160.433 72.6742C160.945 71.1762 160.838 69.5706 160.13 68.1552L159.671 67.2411C158.261 64.4228 154.904 63.2262 152.014 64.5197L122.788 77.8516C119.868 78.6302 117.735 81.3517 117.735 84.5118C117.735 85.3092 117.874 86.0752 118.126 86.7875L117.551 87.1705C109.88 83.3358 91.2732 86.4278 73.8887 92.469C72.867 92.8242 71.8453 93.1911 70.8326 93.566C68.9113 86.4547 73.8833 81.2781 74.1542 81.0046L71.3834 78.2472C71.2703 78.3611 68.5839 81.0781 67.2339 85.3944C66.4544 87.8863 66.0355 91.2132 67.1549 94.9815C64.028 96.2292 61.0195 97.5495 58.177 98.9202C56.5983 93.0682 56.4592 87.0314 56.6736 82.6685C56.7633 80.8386 56.1175 79.1011 54.8545 77.7745C53.5933 76.4505 51.89 75.7213 50.0601 75.7213C46.4093 75.7213 43.4385 78.6894 43.4385 82.3375V96.1538C43.4385 96.736 42.964 97.2096 42.381 97.2096C41.048 97.2096 39.7958 97.7307 38.8558 98.6753C37.9175 99.618 37.4054 100.871 37.4134 102.201C37.4278 104.462 37.8942 107.997 39.0908 111.51C36.0984 114.71 35.0283 117.611 35.9119 120.145C39.1957 129.579 46.7421 136.875 57.1607 140.687Z" fill="white"/>
</g>
<path d="M53.2141 64.0003C52.1368 64.0003 51.2586 63.1239 51.2586 62.0466C51.2586 60.9702 52.1368 60.0939 53.2141 60.0939C54.2922 60.0939 55.1695 60.9702 55.1695 62.0466C55.1695 63.1239 54.2922 64.0003 53.2141 64.0003ZM53.2141 56.1866C49.9795 56.1866 47.3486 58.8157 47.3486 62.0466C47.3486 65.2785 49.9795 67.9076 53.2141 67.9076C56.4486 67.9076 59.0795 65.2785 59.0795 62.0466C59.0795 58.8157 56.4486 56.1866 53.2141 56.1866Z" fill="white"/>
<mask id="mask1_421_184" style="mask-type:luminance" maskUnits="userSpaceOnUse" x="60" y="42" width="13" height="13">
<path d="M60.8518 42.512H72.7925V54.4222H60.8518V42.512Z" fill="white"/>
</mask>
<g mask="url(#mask1_421_184)">
<path d="M64.9458 48.3729C64.9458 47.2956 65.823 46.4193 66.9003 46.4193C67.9785 46.4193 68.8558 47.2956 68.8558 48.3729C68.8558 49.4493 67.9785 50.3256 66.9003 50.3256C65.823 50.3256 64.9458 49.4493 64.9458 48.3729ZM72.7658 48.3729C72.7658 45.141 70.1349 42.512 66.9003 42.512C63.6658 42.512 61.0349 45.141 61.0349 48.3729C61.0349 51.6039 63.6658 54.2329 66.9003 54.2329C70.1349 54.2329 72.7658 51.6039 72.7658 48.3729Z" fill="white"/>
</g>
<path d="M64.9458 69.8612H61.0349V73.7676H64.9458V69.8612Z" fill="white"/>
<path d="M62.9902 87.4423H59.0793V91.3496H62.9902V87.4423Z" fill="white"/>
<path d="M74.721 105.024H70.811V108.931H74.721V105.024Z" fill="white"/>
<path d="M39.5276 71.814H43.4385V67.9076H39.5276V71.814Z" fill="white"/>
<path d="M56.0404 120.323L58.2093 117.073C53.431 113.89 53.2202 110.958 53.213 110.835C53.2148 110.867 53.2139 110.884 53.2139 110.884H49.304C49.304 111.391 49.4923 115.963 56.0404 120.323Z" fill="white"/>
<path d="M75.3293 60.9936C76.673 58.9682 78.0472 57.5796 78.0606 57.5662L75.2943 54.8052C75.0315 55.0672 68.8557 61.3138 68.8557 67.9076H72.7657C72.7657 65.9154 73.6528 63.5249 75.3293 60.9936Z" fill="white"/>
</svg>
