<svg width="184" height="184" viewBox="0 0 184 184" fill="none" xmlns="http://www.w3.org/2000/svg">
<path d="M54.0943 60.2375C57.4813 60.2375 60.2374 57.4814 60.2374 54.0944C60.2374 50.7065 57.4813 47.9513 54.0943 47.9513C50.7064 47.9513 47.9512 50.7065 47.9512 54.0944C47.9512 57.4814 50.7064 60.2375 54.0943 60.2375ZM54.0943 52.0464C55.223 52.0464 56.1423 52.9648 56.1423 54.0944C56.1423 55.2231 55.223 56.1424 54.0943 56.1424C52.9647 56.1424 52.0463 55.2231 52.0463 54.0944C52.0463 52.9648 52.9647 52.0464 54.0943 52.0464Z" fill="white"/>
<path d="M70.4766 60.2375C73.8636 60.2375 76.6197 57.4814 76.6197 54.0944C76.6197 50.7065 73.8636 47.9513 70.4766 47.9513C67.0887 47.9513 64.3335 50.7065 64.3335 54.0944C64.3335 57.4814 67.0887 60.2375 70.4766 60.2375ZM70.4766 52.0464C71.6053 52.0464 72.5246 52.9648 72.5246 54.0944C72.5246 55.2231 71.6053 56.1424 70.4766 56.1424C69.347 56.1424 68.4286 55.2231 68.4286 54.0944C68.4286 52.9648 69.347 52.0464 70.4766 52.0464Z" fill="white"/>
<path d="M86.8587 60.2375C90.2466 60.2375 93.0018 57.4814 93.0018 54.0944C93.0018 50.7065 90.2466 47.9513 86.8587 47.9513C83.4717 47.9513 80.7156 50.7065 80.7156 54.0944C80.7156 57.4814 83.4717 60.2375 86.8587 60.2375ZM86.8587 52.0464C87.9883 52.0464 88.9067 52.9648 88.9067 54.0944C88.9067 55.2231 87.9883 56.1424 86.8587 56.1424C85.73 56.1424 84.8107 55.2231 84.8107 54.0944C84.8107 52.9648 85.73 52.0464 86.8587 52.0464Z" fill="white"/>
<path d="M103.241 56.1424H133.958C135.089 56.1424 136.005 55.2249 136.005 54.0944C136.005 52.9639 135.089 52.0464 133.958 52.0464H103.241C102.11 52.0464 101.193 52.9639 101.193 54.0944C101.193 55.2249 102.11 56.1424 103.241 56.1424Z" fill="white"/>
<path d="M117.576 98.089H110.011C109.753 97.3338 109.448 96.5973 109.097 95.8821L114.445 90.5332C115.246 89.7337 115.246 88.4364 114.445 87.6369L108.607 81.7973C107.806 80.9978 106.51 80.9978 105.71 81.7973L100.362 87.1462C99.6454 86.7948 98.9089 86.4896 98.1547 86.2314V78.6676C98.1547 77.5363 97.238 76.6196 96.1067 76.6196H87.8499C86.7186 76.6196 85.8019 77.5363 85.8019 78.6676V86.2314C85.0477 86.4896 84.3112 86.7957 83.5951 87.1462L78.2462 81.7973C77.4467 80.9978 76.1503 80.9978 75.3499 81.7973L69.5103 87.6369C68.7108 88.4364 68.7108 89.7337 69.5103 90.5332L74.8601 95.8821C74.5087 96.5973 74.2034 97.3347 73.9452 98.089H66.3806C65.2501 98.089 64.3335 99.0056 64.3335 100.136V108.394C64.3335 109.524 65.2501 110.442 66.3806 110.442H73.9452C74.2034 111.196 74.5087 111.932 74.8601 112.648L69.5112 117.997C68.7108 118.796 68.7108 120.093 69.5112 120.893L75.3508 126.732C76.1503 127.532 77.4467 127.532 78.2471 126.732L83.596 121.384C84.3112 121.735 85.0477 122.04 85.8019 122.298V129.862C85.8019 130.994 86.7195 131.91 87.8499 131.91H96.1067C97.238 131.91 98.1547 130.994 98.1547 129.862V122.298C98.9089 122.04 99.6454 121.735 100.362 121.384L105.71 126.732C106.51 127.532 107.806 127.532 108.607 126.732L114.446 120.893C115.246 120.093 115.246 118.796 114.446 117.997L109.097 112.648C109.449 111.932 109.754 111.195 110.012 110.441H117.576C118.706 110.441 119.623 109.524 119.623 108.394V100.136C119.623 99.0056 118.706 98.089 117.576 98.089ZM115.528 106.346H108.482C107.543 106.346 106.723 106.986 106.496 107.899C106.139 109.329 105.573 110.695 104.812 111.958C104.328 112.764 104.454 113.797 105.119 114.462L110.102 119.445L107.159 122.389L102.175 117.406C101.51 116.741 100.478 116.615 99.672 117.099C98.4085 117.86 97.0428 118.426 95.6115 118.783C94.6994 119.01 94.0587 119.829 94.0587 120.77V127.814H89.8979V120.77C89.8979 119.829 89.2573 119.01 88.3451 118.783C86.9138 118.426 85.5482 117.86 84.2846 117.099C83.4798 116.615 82.4469 116.741 81.7814 117.406L76.798 122.389L73.8547 119.445L78.8372 114.462C79.5027 113.798 79.6287 112.764 79.1442 111.958C78.3837 110.695 77.8176 109.329 77.4609 107.899C77.2337 106.986 76.4138 106.346 75.4741 106.346H68.4286V102.184H75.4741C76.4138 102.184 77.2337 101.544 77.4609 100.631C77.8176 99.2008 78.3837 97.8352 79.1442 96.5716C79.6287 95.7659 79.5027 94.733 78.8372 94.0675L73.8547 89.0851L76.798 86.1417L81.7814 91.1242C82.4469 91.7897 83.4789 91.9148 84.2846 91.4303C85.5482 90.6707 86.9138 90.1037 88.3451 89.747C89.2573 89.5199 89.8979 88.7008 89.8979 87.7603V80.7156H94.0587V87.7603C94.0587 88.7008 94.6994 89.5199 95.6115 89.747C97.0428 90.1037 98.4085 90.6707 99.672 91.4303C100.478 91.9157 101.511 91.7897 102.175 91.1242L107.159 86.1417L110.102 89.0851L105.119 94.0675C104.454 94.733 104.328 95.7659 104.812 96.5716C105.573 97.8352 106.139 99.2008 106.496 100.631C106.723 101.544 107.543 102.184 108.482 102.184H115.528V106.346Z" fill="white"/>
<path d="M91.9788 95.0383C86.8908 95.0383 82.7522 99.1778 82.7522 104.265C82.7522 109.352 86.8908 113.492 91.9788 113.492C97.066 113.492 101.205 109.352 101.205 104.265C101.205 99.1778 97.066 95.0383 91.9788 95.0383ZM91.9788 109.396C89.1491 109.396 86.8473 107.095 86.8473 104.265C86.8473 101.436 89.1491 99.1343 91.9788 99.1343C94.8077 99.1343 97.1095 101.436 97.1095 104.265C97.1095 107.095 94.8077 109.396 91.9788 109.396Z" fill="white"/>
<mask id="mask0_421_202" style="mask-type:luminance" maskUnits="userSpaceOnUse" x="39" y="39" width="106" height="106">
<path d="M39.7603 39.7602H144.197V144.197H39.7603V39.7602Z" fill="white"/>
</mask>
<g mask="url(#mask0_421_202)">
<path d="M136.005 39.7602H47.9513C43.4348 39.7602 39.7603 43.4347 39.7603 47.9513V136.005C39.7603 140.522 43.4348 144.197 47.9513 144.197H136.005C140.522 144.197 144.197 140.522 144.197 136.005V47.9513C144.197 43.4347 140.522 39.7602 136.005 39.7602ZM47.9513 43.8553H136.005C138.264 43.8553 140.101 45.693 140.101 47.9513V64.3335H43.8554V47.9513C43.8554 45.693 45.693 43.8553 47.9513 43.8553ZM136.005 140.101H47.9513C45.693 140.101 43.8554 138.264 43.8554 136.005V68.4286H140.101V136.005C140.101 138.264 138.264 140.101 136.005 140.101Z" fill="white"/>
</g>
</svg>
