<svg width="164" height="164" viewBox="0 0 164 164" fill="none" xmlns="http://www.w3.org/2000/svg">
<path d="M48.7498 20.929C57.0717 16.1243 63.2206 12.5762 68.4249 10.2187C73.5991 7.87478 77.7326 6.75982 81.9998 6.75982C86.2671 6.75982 90.4006 7.87478 95.5748 10.2187C100.779 12.5762 106.928 16.1243 115.25 20.9289L117.892 22.4542C126.214 27.2588 132.361 30.8098 137.005 34.1381C141.622 37.4472 144.654 40.4694 146.788 44.165C148.921 47.8606 150.022 51.9977 150.58 57.6507C151.14 63.3365 151.142 70.4357 151.142 80.0449V83.0954C151.142 92.7047 151.14 99.8038 150.58 105.49C150.022 111.143 148.921 115.28 146.788 118.975C144.654 122.671 141.622 125.693 137.005 129.002C132.361 132.33 126.214 135.882 117.892 140.686L115.25 142.211C106.928 147.016 100.779 150.564 95.5748 152.922C90.4006 155.266 86.2671 156.381 81.9998 156.381C77.7326 156.381 73.5991 155.266 68.4249 152.922C63.2206 150.564 57.0717 147.016 48.7498 142.211L46.108 140.686C37.7862 135.882 31.639 132.33 26.9951 129.002C22.3781 125.693 19.3458 122.671 17.2122 118.975C15.0786 115.28 13.9774 111.143 13.4202 105.49C12.8597 99.8038 12.858 92.7047 12.858 83.0954V80.0449C12.858 70.4357 12.8597 63.3365 13.4202 57.6507C13.9774 51.9977 15.0786 47.8606 17.2122 44.165C19.3458 40.4694 22.3781 37.4472 26.9951 34.1382C31.639 30.8098 37.7862 27.2588 46.108 22.4542L48.7498 20.929Z" fill="#E7F0FF" stroke="#8DBBFF" stroke-width="3"/>
<path d="M73.3187 67.7088L81.561 54.3151C82.536 52.7308 84.2631 51.7656 86.1235 51.7656C89.4068 51.7656 91.9176 54.6923 91.4184 57.9374L90.5203 63.775C89.5488 70.0896 94.4345 75.7844 100.823 75.7844H103.372C112.747 75.7844 118.844 85.6501 114.652 94.0351L110.408 102.523C107.278 108.782 100.88 112.736 93.8823 112.736H83.1299C78.1492 112.736 73.7439 110.273 71.066 106.498C71.1021 106.119 71.1205 105.734 71.1205 105.346V75.7844C71.1205 74.5613 70.9377 73.3809 70.5978 72.269C71.2527 71.0661 72.1246 69.6492 73.3187 67.7088Z" fill="#3888FF"/>
<path d="M65.5777 105.346C65.5777 108.917 62.6825 111.813 59.1111 111.813C55.5397 111.813 52.6445 108.917 52.6445 105.346V75.7844C52.6445 72.213 55.5397 69.3178 59.1111 69.3178C62.6825 69.3178 65.5777 72.213 65.5777 75.7844V105.346Z" fill="#3888FF"/>
</svg>
