<svg width="116" height="53" viewBox="0 0 116 53" fill="none" xmlns="http://www.w3.org/2000/svg">
<path d="M2.32397 2.31836C6 11 16.553 24.3955 25.0139 29.5102C32.8671 34.2577 42.2916 38.6346 51.6655 38.244C55.0643 38.1024 66 37.5102 68.5 29.5102C73.0344 15 35.8184 22.0503 40.9959 38.3791C43.9282 47.6271 50.5701 50.54 60 51C65.0431 51.246 70 51 77 48C86.5 43 89 41 90 29.5102C91 24 91 22.5 95 18.5C96.7678 16.7322 100.5 14.5556 101.5 14C106 11.5 110 9 114.5 6.5" stroke="white" stroke-width="3" stroke-linecap="round"/>
</svg>
