<svg width="147" height="147" viewBox="0 0 147 147" fill="none" xmlns="http://www.w3.org/2000/svg">
<path d="M56.25 18.375H23.375C20.6136 18.375 18.375 20.6136 18.375 23.375V56.25C18.375 59.0114 20.6136 61.25 23.375 61.25H56.25C59.0114 61.25 61.25 59.0114 61.25 56.25V23.375C61.25 20.6136 59.0114 18.375 56.25 18.375Z" stroke="white" stroke-width="5" stroke-linecap="round" stroke-linejoin="round"/>
<path d="M123.625 18.375H90.75C87.9886 18.375 85.75 20.6136 85.75 23.375V56.25C85.75 59.0114 87.9886 61.25 90.75 61.25H123.625C126.386 61.25 128.625 59.0114 128.625 56.25V23.375C128.625 20.6136 126.386 18.375 123.625 18.375Z" stroke="white" stroke-width="5" stroke-linecap="round" stroke-linejoin="round"/>
<path d="M123.625 85.75H90.75C87.9886 85.75 85.75 87.9886 85.75 90.75V123.625C85.75 126.386 87.9886 128.625 90.75 128.625H123.625C126.386 128.625 128.625 126.386 128.625 123.625V90.75C128.625 87.9886 126.386 85.75 123.625 85.75Z" stroke="white" stroke-width="5" stroke-linecap="round" stroke-linejoin="round"/>
<path d="M56.25 85.75H23.375C20.6136 85.75 18.375 87.9886 18.375 90.75V123.625C18.375 126.386 20.6136 128.625 23.375 128.625H56.25C59.0114 128.625 61.25 126.386 61.25 123.625V90.75C61.25 87.9886 59.0114 85.75 56.25 85.75Z" stroke="white" stroke-width="5" stroke-linecap="round" stroke-linejoin="round"/>
</svg>
